<?xml version="1.0" encoding="iso-8859-1"?>
<!-- Generator: Adobe Illustrator 18.0.0, SVG Export Plug-In . SVG Version: 6.00 Build 0)  -->
<!DOCTYPE svg PUBLIC "-//W3C//DTD SVG 1.1//EN" "http://www.w3.org/Graphics/SVG/1.1/DTD/svg11.dtd">
<svg version="1.1" id="Capa_1" xmlns="http://www.w3.org/2000/svg" xmlns:xlink="http://www.w3.org/1999/xlink" x="0px" y="0px"
	 viewBox="0 0 418.204 418.204" style="enable-background:new 0 0 418.204 418.204;" xml:space="preserve">
<g>
	<path d="M368.288,49.916c-66.555-66.555-174.846-66.555-241.4,0L2.929,173.875c-3.905,3.905-3.905,10.237,0,14.143l74.246,74.246
		c3.906,3.906,10.237,3.905,14.143,0l123.959-123.958c17.816-17.817,46.807-17.817,64.623,0c17.817,17.816,17.817,46.806,0,64.623
		L155.941,326.886c-3.905,3.905-3.905,10.237,0,14.142l74.246,74.247c1.875,1.875,4.419,2.929,7.071,2.929s5.196-1.054,7.071-2.929
		l123.959-123.959C434.842,224.762,434.842,116.47,368.288,49.916z M84.246,241.05l-60.104-60.104l26.697-26.697l60.104,60.104
		L84.246,241.05z M201.134,124.162l-76.048,76.048l-60.104-60.104l76.048-76.048c28.463-28.462,66.306-44.137,106.558-44.137
		c36.9,0,71.77,13.182,99.25,37.303l-60.405,60.405C260.746,98.774,224.346,100.951,201.134,124.162z M237.258,394.062
		l-60.104-60.104l26.697-26.697l60.104,60.104L237.258,394.062z M354.147,277.173l-76.049,76.049l-60.104-60.104l76.048-76.048
		c23.211-23.211,25.388-59.613,6.534-85.299l60.404-60.405c24.122,27.48,37.304,62.35,37.304,99.25
		C398.284,210.868,382.609,248.711,354.147,277.173z"/>
	<path d="M113.097,284.72c-3.905-3.905-10.237-3.905-14.143,0l-58.088,58.088c-2.86,2.86-3.715,7.161-2.167,10.898
		s5.194,6.173,9.239,6.173h33.946l-41.017,41.017c-3.905,3.905-3.905,10.237,0,14.143c1.953,1.953,4.512,2.929,7.071,2.929
		s5.119-0.976,7.071-2.929l58.088-58.088c2.86-2.86,3.715-7.161,2.167-10.898s-5.194-6.173-9.239-6.173H72.08l41.017-41.017
		C117.002,294.957,117.002,288.625,113.097,284.72z"/>
</g>
<g>
</g>
<g>
</g>
<g>
</g>
<g>
</g>
<g>
</g>
<g>
</g>
<g>
</g>
<g>
</g>
<g>
</g>
<g>
</g>
<g>
</g>
<g>
</g>
<g>
</g>
<g>
</g>
<g>
</g>
</svg>
