<svg viewBox="-66 0 512 512.00014" xmlns="http://www.w3.org/2000/svg"><path d="m210 392c-5.519531 0-10 4.480469-10 10s4.480469 10 10 10 10-4.480469 10-10-4.480469-10-10-10zm0 0"/><path d="m280 190c0-13.183594-8.550781-24.398438-20.394531-28.414062-3.953125-42.394532-37.425781-76.34375-79.605469-81.027344v-50.558594c0-5.519531-4.476562-10-10-10h-20c-27.570312 0-50 22.429688-50 50v10.566406c-42.242188 4.644532-75.679688 38.515625-79.601562 81.007813-11.664063 3.929687-20.398438 15.007812-20.398438 28.425781 0 13.035156 8.359375 24.152344 20 28.28125v235.421875c-11.386719 4.019531-20 14.964844-20 28.296875 0 16.542969 13.457031 30 30 30h220c16.574219 0 30-13.425781 30-30 0-13.035156-8.363281-24.152344-20-28.28125v-235.421875c11.390625-4.015625 20-14.964844 20-28.296875zm-130-150h10v40h-40v-10c0-16.539062 13.457031-30 30-30zm-40 60h60c35.203125 0 64.421875 26.121094 69.289062 60h-198.585937c4.789063-33.660156 33.757813-60 69.296875-60zm-80 80h220c5.511719 0 10 4.488281 10 10 0 5.519531-4.480469 10-10 10h-220c-5.515625 0-10-4.484375-10-10 0-5.519531 4.480469-10 10-10zm10 100h80v112h-80zm0 132h90c5.523438 0 10-4.476562 10-10v-132c0-5.519531-4.476562-10-10-10h-90v-40h200v232h-200zm210 80h-220c-5.515625 0-10-4.484375-10-10 0-5.519531 4.476562-10 10-10h220c5.511719 0 10 4.484375 10 10 0 5.519531-4.480469 10-10 10zm0 0"/><path d="m368.355469.136719-120 20c-5.449219.910156-9.128907 6.0625-8.222657 11.507812.910157 5.457031 6.074219 9.128907 11.507813 8.222657l120-20c5.449219-.910157 9.128906-6.0625 8.222656-11.507813-.90625-5.449219-6.066406-9.128906-11.507812-8.222656zm0 0"/><path d="m371.640625 80.136719-120-20c-5.445313-.90625-10.597656 2.773437-11.507813 8.222656-.90625 5.445313 2.773438 10.597656 8.222657 11.507813l120 20c5.445312.90625 10.601562-2.773438 11.507812-8.222657.90625-5.445312-2.773437-10.597656-8.222656-11.507812zm0 0"/><path d="m210 260c-5.523438 0-10 4.480469-10 10v92c0 5.523438 4.476562 10 10 10s10-4.476562 10-10v-92c0-5.519531-4.476562-10-10-10zm0 0"/></svg>