<svg id="Capa_1" enable-background="new 0 0 443.294 443.294" height="512" viewBox="0 0 443.294 443.294" width="512" xmlns="http://www.w3.org/2000/svg"><path d="m371.716 277.059h-61.415c-16.222-15.563-33.242-39.149-33.242-83.118 0-17.519 5.276-29.113 11.377-42.533 7.657-16.843 16.329-35.931 16.329-68.291 0-45.833-37.284-83.117-83.118-83.117s-83.118 37.284-83.118 83.118c0 32.373 8.685 51.489 16.342 68.358 6.101 13.42 11.364 25.014 11.364 42.465 0 43.969-17.02 67.555-33.242 83.118h-61.415c-24.189 0-43.872 22.782-43.872 50.799v73.878c0 7.657 6.196 13.853 13.853 13.853h13.853v27.706h332.471v-27.706h13.853c7.657 0 13.853-6.196 13.853-13.853v-73.878c-.001-28.018-19.684-50.799-43.873-50.799zm-191.614-137.042c-7.129-15.706-13.866-30.52-13.866-56.9 0-30.56 24.851-55.412 55.412-55.412 30.56 0 55.412 24.851 55.412 55.412 0 26.353-6.724 41.153-13.853 56.819-6.805 14.989-13.853 30.479-13.853 54.005 0 38.336 11.174 64.508 24.413 83.118h-104.24c13.239-18.61 24.413-44.782 24.413-83.118.001-23.458-7.034-38.948-13.838-53.924zm207.78 247.865h-332.471v-60.025c0-12.514 7.4-23.093 16.166-23.093h300.138c8.766 0 16.166 10.579 16.166 23.093.001 0 .001 60.025.001 60.025z"/></svg>