<?xml version="1.0" standalone="no"?>
<!DOCTYPE svg PUBLIC "-//W3C//DTD SVG 20010904//EN"
 "http://www.w3.org/TR/2001/REC-SVG-20010904/DTD/svg10.dtd">
<svg version="1.0" xmlns="http://www.w3.org/2000/svg"
 width="630.000000pt" height="690.000000pt" viewBox="0 0 630.000000 690.000000"
 preserveAspectRatio="xMidYMid meet">
<metadata>
Created by potrace 1.15, written by Peter Selinger 2001-2017
</metadata>
<g transform="translate(0.000000,690.000000) scale(0.100000,-0.100000)"
fill="#000000" stroke="none">
<path d="M484 6826 c-56 -59 -129 -210 -149 -308 -23 -116 -19 -271 9 -408 24
-111 61 -228 91 -287 8 -15 15 -33 15 -38 0 -16 135 -260 186 -337 l45 -68
-34 -57 c-107 -178 -485 -938 -473 -950 2 -2 27 13 54 34 60 45 120 78 128 71
2 -3 1 -25 -5 -49 -5 -24 -15 -71 -21 -104 -19 -92 -69 -300 -97 -400 -35
-129 -133 -416 -149 -440 -35 -50 -5 -52 56 -3 68 54 144 107 148 104 3 -4
-20 -99 -48 -201 -5 -16 -16 -55 -24 -85 -20 -72 -150 -454 -170 -502 -9 -20
-24 -39 -33 -41 -10 -3 3 -5 28 -6 25 0 68 6 95 14 27 8 52 15 56 15 4 0 -24
-49 -63 -109 -38 -61 -69 -112 -69 -115 0 -4 40 -6 89 -6 159 0 379 -28 507
-66 62 -18 68 -29 22 -39 -42 -9 -146 -49 -201 -78 -73 -39 -157 -91 -157 -98
0 -3 39 -9 88 -13 204 -15 685 -131 673 -161 -2 -6 -21 -15 -43 -22 -52 -15
-102 -39 -168 -81 -68 -43 -190 -140 -190 -151 0 -5 46 -12 103 -16 279 -18
462 -60 652 -151 241 -115 413 -266 574 -506 49 -73 62 -110 42 -123 -20 -12
-43 -154 -36 -213 8 -66 44 -166 82 -232 29 -49 140 -193 153 -198 10 -4 16
16 25 76 4 26 12 41 18 39 7 -2 28 -28 49 -58 20 -30 81 -102 135 -160 87 -94
99 -103 106 -85 5 12 6 33 3 49 -8 38 10 35 59 -12 42 -41 210 -161 224 -161
5 0 7 18 4 40 -3 22 -3 40 1 40 3 0 32 -20 63 -44 68 -53 169 -105 217 -113
24 -4 51 3 100 26 63 29 167 99 181 121 13 22 25 8 25 -30 0 -22 2 -40 4 -40
14 0 191 127 228 164 26 25 49 46 52 46 3 0 6 -20 6 -45 0 -29 4 -45 13 -45
25 0 187 181 245 275 l31 50 10 -27 c5 -14 13 -42 16 -62 4 -20 13 -36 20 -36
19 0 141 166 179 245 64 131 72 271 23 380 l-26 56 27 42 c113 177 245 320
384 417 243 171 507 256 853 275 60 3 111 8 114 10 7 8 -65 71 -144 127 -79
56 -205 118 -241 118 -42 0 -23 32 26 43 14 3 79 22 145 41 106 31 176 46 345
76 25 4 84 11 133 15 48 4 87 11 87 16 0 22 -175 116 -285 153 -44 15 -86 29
-94 32 -22 7 -10 13 90 39 109 28 339 55 469 55 49 0 90 3 90 8 0 4 -29 52
-65 106 -68 104 -76 123 -47 111 25 -11 93 -24 124 -25 l26 0 -18 38 c-43 91
-265 787 -254 800 4 5 89 -53 152 -105 74 -59 90 -56 55 10 -16 32 -76 193
-93 252 -5 17 -23 77 -40 135 -30 105 -83 315 -100 400 -5 25 -16 76 -25 115
-18 83 -18 85 -5 85 13 0 118 -67 147 -93 13 -11 25 -18 28 -15 13 13 -320
685 -462 932 l-45 78 21 29 c84 114 222 382 270 525 55 166 66 235 66 409 0
125 -4 173 -18 220 -29 97 -88 205 -140 257 -41 41 -54 48 -87 48 -66 0 -129
-36 -270 -155 -229 -192 -532 -380 -688 -426 -51 -15 -122 -6 -367 48 -88 20
-182 39 -210 44 -177 31 -267 41 -340 36 -80 -5 -233 -32 -270 -47 -11 -4 -40
-14 -65 -21 -25 -7 -49 -16 -55 -19 -5 -4 -37 -17 -70 -30 -33 -13 -71 -31
-85 -40 -116 -76 -143 -96 -147 -107 -7 -17 -39 -17 -46 1 -9 22 -165 120
-247 154 -181 75 -319 105 -480 106 -115 0 -267 -18 -360 -44 -44 -12 -300
-64 -399 -81 -92 -16 -128 -7 -271 64 -168 83 -389 233 -574 390 -105 88 -177
127 -237 127 -37 0 -48 -6 -85 -44z m184 -304 c59 -73 189 -132 290 -132 72 0
39 -14 -61 -25 -92 -11 -92 -11 -62 -27 40 -21 181 -42 282 -43 45 0 79 -3 75
-7 -9 -9 -127 -28 -174 -28 -47 0 -49 -15 -5 -29 56 -18 262 -43 321 -39 56 3
75 -5 34 -15 -13 -3 -49 -9 -81 -13 -33 -3 -55 -10 -50 -15 33 -33 371 -37
433 -5 18 9 35 14 37 12 3 -2 -13 -27 -34 -54 -22 -27 -50 -74 -63 -104 l-25
-55 -35 27 c-47 37 -139 71 -290 109 -141 36 -238 77 -275 117 l-25 27 0 -59
0 -59 -21 25 c-63 78 -137 177 -154 206 -25 42 -32 42 -40 4 -4 -16 -10 -30
-13 -30 -13 1 -71 86 -93 134 -23 54 -39 176 -18 141 7 -11 28 -39 47 -63z
m5046 46 c-17 -97 -51 -174 -103 -235 -25 -30 -28 -29 -36 7 -8 36 -22 39 -34
7 -5 -12 -24 -41 -42 -64 -19 -23 -50 -63 -69 -88 -19 -26 -43 -57 -53 -68
-17 -22 -18 -22 -11 15 3 20 3 46 -1 59 l-7 22 -17 -20 c-37 -46 -156 -95
-341 -139 -99 -23 -187 -59 -231 -94 l-36 -28 -23 54 c-12 31 -40 77 -61 104
-22 27 -39 51 -39 54 0 2 21 -4 48 -14 80 -30 401 -23 422 9 3 5 14 10 25 13
11 2 -14 4 -55 5 -41 1 -88 6 -105 11 -23 7 -5 10 85 15 151 9 278 30 298 51
15 15 13 16 -28 17 -44 0 -190 24 -180 29 3 1 45 4 94 5 127 5 296 36 296 55
0 4 -35 11 -77 15 -96 9 -139 23 -71 24 62 1 157 32 217 70 45 29 121 112 121
133 0 4 4 8 10 8 5 0 7 -14 4 -32z m-5230 -60 c11 -82 95 -245 164 -316 31
-32 69 -66 85 -76 l27 -16 0 61 0 61 36 -49 c85 -113 330 -330 350 -310 2 2
-9 28 -26 58 -16 30 -30 62 -30 72 0 15 7 13 53 -12 28 -16 93 -42 142 -56 94
-28 255 -102 255 -117 0 -5 -12 -13 -26 -18 -42 -16 -153 -84 -237 -144 -43
-31 -83 -56 -88 -56 -11 0 -5 29 17 74 8 16 12 31 10 34 -8 7 -158 -109 -299
-232 -37 -33 -69 -57 -72 -54 -6 5 33 107 47 123 21 24 6 31 -61 27 -59 -4
-78 0 -123 21 -29 14 -66 37 -83 51 l-30 25 78 1 c44 0 77 4 77 10 0 6 -4 10
-8 10 -25 0 -139 91 -181 144 -49 62 -86 124 -78 132 2 2 24 -5 48 -16 42 -19
109 -27 109 -14 0 4 -20 24 -45 46 -105 92 -169 320 -144 505 7 46 15 83 19
83 4 0 11 -24 14 -52z m5386 -25 c29 -181 -41 -423 -150 -516 -22 -19 -40 -37
-40 -40 0 -14 67 -6 109 13 24 11 46 18 48 16 3 -3 -7 -27 -22 -54 -37 -68
-134 -166 -203 -205 l-57 -32 89 -5 88 -5 -43 -30 c-82 -57 -160 -79 -228 -64
-19 4 -37 6 -40 4 -2 -3 6 -26 19 -52 13 -27 27 -56 32 -65 10 -22 10 -38 0
-38 -4 0 -57 43 -116 96 -60 52 -135 113 -167 134 -32 22 -61 44 -64 50 -3 5
-10 10 -15 10 -5 0 1 -23 12 -50 11 -28 18 -53 15 -57 -4 -3 -39 16 -79 43
-115 79 -190 125 -235 146 -24 10 -43 22 -43 27 0 15 166 89 269 121 58 17
121 43 140 56 48 33 51 14 11 -65 -16 -34 -28 -61 -25 -61 4 0 34 19 68 42 70
47 226 198 281 271 l36 49 0 -62 c0 -73 2 -73 101 22 51 49 76 84 113 158 26
52 52 123 59 158 6 34 14 62 18 62 3 0 12 -34 19 -77z m-3155 -199 c116 -28
226 -65 299 -101 37 -19 66 -36 64 -39 -3 -2 -42 11 -89 30 -128 52 -231 69
-374 64 -247 -10 -465 -104 -669 -289 -66 -60 -206 -225 -206 -242 0 -5 23 12
52 38 102 92 314 217 438 259 130 43 277 70 385 70 111 0 334 -48 391 -83 19
-12 19 -12 -1 -7 -60 16 -136 26 -199 26 -155 0 -388 -59 -532 -135 -67 -35
-234 -143 -254 -163 -7 -7 16 0 153 47 178 61 313 84 492 84 120 0 165 -4 227
-21 95 -26 169 -62 231 -114 l48 -40 20 20 c10 12 39 35 63 52 196 134 548
143 901 21 61 -21 118 -41 128 -46 10 -4 17 -3 17 3 0 13 -163 119 -250 162
-193 97 -462 148 -640 120 -44 -7 -83 -10 -85 -8 -7 6 133 46 220 63 93 19
263 18 367 0 153 -27 328 -99 485 -201 62 -41 161 -119 180 -144 6 -8 14 -12
17 -9 17 17 -164 215 -289 316 -96 77 -268 165 -380 194 -49 13 -126 23 -200
26 -148 6 -281 -18 -415 -76 -49 -22 -90 -36 -90 -32 0 13 138 82 223 111 247
84 444 86 799 6 84 -19 116 -32 168 -67 71 -48 209 -181 192 -187 -5 -1 -51 9
-102 23 -50 15 -94 24 -97 22 -9 -9 170 -178 254 -240 274 -203 420 -313 447
-337 107 -95 147 -132 199 -184 32 -32 60 -56 62 -54 2 2 -12 34 -31 72 -19
38 -34 77 -34 86 0 10 -11 31 -24 47 -12 15 -29 39 -36 52 -29 56 276 -239
404 -390 50 -59 143 -219 197 -339 11 -25 31 -66 45 -91 13 -26 24 -50 24 -53
0 -13 -172 160 -208 208 -20 27 -37 45 -39 39 -2 -5 40 -94 92 -199 107 -210
132 -282 180 -517 36 -174 67 -278 114 -382 16 -36 27 -65 24 -65 -7 0 -73 60
-147 135 l-59 59 7 -69 c17 -167 96 -496 178 -740 28 -82 57 -160 65 -172 20
-31 10 -29 -42 7 -52 36 -145 74 -145 59 0 -14 105 -206 147 -268 13 -19 23
-37 23 -41 0 -4 -35 -10 -77 -14 -161 -13 -384 -73 -570 -152 -93 -39 -112
-54 -70 -54 32 0 193 -48 252 -74 28 -13 60 -26 73 -30 32 -10 27 -26 -8 -26
-99 0 -359 -70 -483 -131 -109 -53 -244 -134 -226 -136 58 -6 166 -27 174 -33
6 -4 22 -10 38 -14 44 -11 137 -57 132 -67 -3 -4 -27 -8 -53 -8 -95 1 -294
-48 -429 -105 -227 -96 -459 -299 -626 -549 -25 -37 -47 -73 -49 -79 -3 -8
-15 -7 -44 4 l-39 16 1 198 c1 220 18 329 90 581 76 267 124 375 239 543 82
119 140 219 132 226 -3 3 -18 -1 -34 -9 -30 -15 -103 -29 -103 -20 0 3 15 26
33 52 48 66 141 230 134 237 -3 3 -34 -10 -70 -30 -35 -20 -68 -36 -72 -36 -5
0 7 17 27 38 64 66 106 166 133 317 22 119 21 126 -14 84 -29 -35 -131 -119
-145 -119 -4 0 1 12 12 28 27 39 60 143 76 247 18 110 25 215 15 215 -5 0 -26
-27 -49 -59 -43 -64 -150 -184 -157 -177 -3 2 3 19 12 37 30 56 92 322 83 349
-2 6 -39 -17 -83 -50 -68 -51 -113 -73 -149 -75 -5 0 -17 32 -26 72 -29 126
-79 173 -191 181 -63 5 -118 -9 -143 -37 -15 -17 -13 -17 47 -17 34 0 72 -5
85 -12 49 -28 14 -133 -84 -248 -32 -38 -70 -79 -84 -92 -31 -28 -140 -85
-148 -78 -3 3 1 59 8 124 14 127 10 173 -8 107 -11 -40 -67 -173 -87 -207 -10
-16 -13 -16 -55 -1 -66 24 -104 13 -177 -51 -58 -50 -67 -55 -128 -61 -36 -4
-90 -4 -120 0 -48 6 -64 14 -119 61 -73 62 -110 73 -173 51 -38 -13 -44 -13
-56 2 -17 21 -87 185 -87 205 0 8 -5 18 -12 22 -8 5 -9 -9 -4 -57 3 -35 9 -97
13 -136 l6 -73 -50 28 c-81 44 -134 90 -199 171 -63 79 -94 141 -94 190 0 25
6 31 42 46 29 11 56 15 85 10 57 -8 57 10 1 35 -27 12 -64 19 -98 19 -124 -1
-184 -55 -212 -188 -7 -35 -17 -65 -23 -68 -19 -7 -98 33 -159 81 -32 25 -63
46 -68 46 -21 0 43 -298 74 -348 11 -18 18 -35 16 -38 -8 -7 -114 111 -158
177 -23 32 -45 59 -49 59 -9 0 -7 -42 10 -185 11 -92 50 -232 77 -273 8 -12
13 -25 10 -27 -6 -7 -132 99 -152 127 -15 21 -16 21 -16 3 0 -36 28 -179 45
-230 25 -73 85 -184 106 -196 11 -5 19 -14 19 -20 0 -6 -29 5 -64 25 -35 20
-67 36 -70 36 -21 0 128 -256 157 -268 4 -2 7 -10 7 -17 0 -17 -60 -10 -103
12 -57 29 -49 7 49 -142 29 -44 67 -99 83 -123 17 -23 31 -45 31 -48 0 -3 9
-19 21 -35 38 -54 127 -302 174 -489 55 -216 67 -298 72 -505 l5 -200 -38 -19
c-37 -17 -39 -17 -49 -1 -140 239 -349 452 -560 572 -147 82 -296 131 -500
162 l-110 17 58 27 c74 34 183 66 247 74 28 3 50 9 50 12 0 3 -17 15 -38 27
-20 12 -70 39 -109 62 -141 78 -328 139 -505 164 -49 7 -88 15 -88 18 0 15
301 120 346 120 47 0 23 18 -81 59 -198 79 -373 127 -525 143 -58 6 -107 13
-109 14 -2 2 19 40 46 86 53 87 123 215 123 223 0 20 -121 -30 -168 -70 -33
-28 -42 -23 -18 10 22 33 112 308 155 476 45 174 76 330 87 431 l6 67 -58 -57
c-67 -66 -136 -124 -140 -119 -2 2 11 39 30 83 47 113 72 198 106 368 42 212
71 296 177 505 51 102 93 188 93 193 0 4 -4 8 -10 8 -5 0 -10 -7 -10 -15 0 -8
-52 -67 -115 -131 -63 -64 -115 -113 -115 -110 0 4 48 102 106 218 103 205
109 214 209 322 147 161 190 204 284 287 70 61 81 68 68 42 -9 -17 -21 -34
-26 -37 -13 -9 -94 -206 -87 -213 3 -3 14 5 25 18 86 109 281 271 648 536 107
77 283 246 270 259 -3 3 -44 -6 -91 -21 -47 -15 -91 -25 -98 -23 -17 6 116
137 188 186 51 34 82 46 190 70 71 16 161 35 199 41 39 6 81 13 95 15 50 9
257 -4 325 -20z m-415 -2465 c70 -124 196 -250 322 -323 55 -32 65 -43 49 -59
-38 -38 14 -153 86 -188 63 -30 130 -94 144 -137 25 -78 60 -132 108 -169 58
-44 76 -79 67 -127 -8 -44 -47 -82 -116 -115 -52 -25 -63 -26 -215 -26 -153 1
-227 9 -380 41 -141 30 -275 84 -275 112 0 10 5 12 18 7 35 -16 153 -37 169
-31 12 5 -2 17 -53 43 -85 44 -143 83 -211 140 -57 48 -149 151 -141 158 2 3
30 -9 61 -26 31 -17 85 -42 119 -55 104 -41 316 -93 287 -71 -2 2 -33 25 -68
52 -132 100 -334 309 -414 430 -38 56 -35 76 6 38 50 -48 241 -170 357 -228
105 -53 252 -115 272 -115 5 0 -19 21 -53 48 -113 84 -269 248 -351 367 -46
68 -118 189 -118 199 0 5 28 -20 63 -55 82 -85 172 -153 249 -189 66 -31 80
-28 54 12 -24 37 -55 133 -76 240 -30 146 -28 147 40 27z m1766 -6 c-20 -100
-50 -200 -77 -255 -11 -21 -19 -40 -19 -43 0 -2 19 3 43 12 68 27 176 105 257
186 41 42 76 74 78 72 8 -7 -74 -144 -147 -245 -86 -120 -242 -281 -318 -330
-29 -18 -51 -35 -49 -38 6 -6 144 52 215 90 97 52 217 126 364 225 42 29 77
48 77 42 0 -21 -89 -144 -162 -225 -81 -90 -227 -220 -347 -311 -2 -2 -2 -5 1
-8 15 -16 295 76 394 129 35 18 64 31 64 27 -1 -12 -96 -109 -160 -163 -78
-66 -137 -106 -210 -144 -42 -21 -50 -29 -35 -32 23 -5 152 16 178 30 29 15
20 -9 -13 -32 -44 -31 -126 -56 -273 -84 -129 -24 -157 -28 -325 -47 -99 -11
-196 6 -273 48 -62 33 -89 69 -89 118 0 33 8 45 69 104 56 54 73 78 96 138 32
82 68 123 152 167 81 44 98 72 98 157 l0 69 65 37 c117 69 287 258 338 377 22
50 25 20 8 -71z m-1136 -300 c34 -44 77 -64 159 -73 141 -16 252 12 304 77 40
51 164 17 215 -57 32 -47 27 -120 -12 -158 l-26 -27 0 27 c0 69 -152 21 -204
-64 -13 -21 -16 -47 -14 -111 3 -78 1 -86 -25 -121 -27 -34 -104 -94 -110 -85
-2 2 -14 59 -27 126 -13 67 -27 120 -31 117 -4 -2 -17 -58 -29 -124 -13 -66
-26 -120 -29 -120 -3 0 -28 16 -54 36 -67 49 -87 96 -80 188 5 69 5 72 -28
113 -47 57 -84 76 -142 72 -38 -3 -48 -1 -53 13 -3 10 -10 18 -15 18 -5 0 -10
12 -10 28 -1 21 -3 23 -6 6 -2 -12 5 -37 16 -55 23 -38 26 -49 11 -49 -19 0
-50 64 -50 103 0 48 23 83 79 119 62 39 130 40 161 1z m-445 -838 c44 -8 92
-15 108 -15 15 0 27 -2 27 -5 0 -2 -7 -30 -16 -62 -8 -32 -19 -78 -23 -103
-88 -475 -100 -530 -118 -530 -44 0 -82 212 -118 664 l-6 79 33 -7 c18 -4 69
-13 113 -21z m1495 12 c0 -67 -35 -418 -51 -511 -21 -124 -54 -219 -73 -213
-14 4 -42 124 -99 427 -25 129 -47 242 -49 250 -2 10 12 17 52 23 30 5 84 14
120 21 87 18 100 18 100 3z m-1722 -178 c59 -182 70 -222 91 -319 39 -189 45
-258 45 -585 l1 -320 26 -55 c30 -64 112 -143 167 -162 26 -8 183 -13 542 -15
494 -3 507 -3 578 19 91 27 158 82 193 160 24 52 24 58 25 373 1 399 8 463 90
755 48 170 87 280 99 280 4 0 -5 -33 -40 -145 -65 -210 -125 -715 -125 -1048
0 -158 -47 -279 -138 -355 -78 -67 -114 -75 -302 -67 -173 7 -261 -1 -326 -33
-32 -15 -36 -15 -51 1 -16 16 -15 17 15 17 19 0 32 5 32 13 0 9 2 9 8 0 5 -8
13 -9 22 -3 15 9 12 11 -37 26 -19 5 -75 -21 -66 -31 5 -4 -1 -4 -12 1 -11 4
-123 9 -250 9 -162 1 -239 5 -260 14 -83 35 -162 131 -194 235 -16 52 -21 96
-21 185 -1 144 -23 464 -44 631 -22 173 -64 357 -121 535 -6 18 -5 18 7 4 7
-9 28 -63 46 -120z m1342 121 c-8 -5 -22 -10 -32 -10 -22 0 -128 -88 -128
-106 0 -10 -6 -13 -17 -10 -10 3 -36 1 -58 -5 -22 -6 -64 -10 -93 -9 -29 1
-69 -4 -88 -10 -25 -9 -38 -9 -48 -1 -7 6 -42 11 -77 10 -70 -2 -179 18 -179
32 0 11 85 2 110 -11 11 -6 50 -10 87 -10 37 0 79 0 93 -1 33 -1 128 8 160 15
25 6 75 14 96 15 7 1 9 13 7 29 -3 17 -1 23 4 15 7 -10 17 -7 41 10 l32 24
-103 -4 c-56 -2 -130 -5 -164 -6 -35 -2 -63 0 -63 4 0 13 109 22 184 16 44 -3
84 -1 106 7 43 15 152 20 130 6z m-798 -73 c66 -53 73 -85 31 -139 -15 -20
-33 -44 -39 -54 -26 -44 -63 33 -71 152 -7 102 0 105 79 41z m796 -41 c-6 -82
-30 -156 -53 -163 -5 -1 -27 21 -48 49 -52 71 -49 99 21 155 79 64 86 61 80
-41z m-974 -1011 c61 -65 104 -86 91 -45 -6 20 -6 20 42 2 64 -23 83 -60 83
-160 0 -81 -16 -131 -51 -156 -64 -44 -148 4 -201 114 -56 118 -78 310 -36
310 6 0 38 -29 72 -65z m1160 49 c18 -47 -11 -220 -49 -295 -29 -55 -94 -118
-130 -125 -78 -14 -125 47 -125 164 0 111 23 150 102 173 27 7 30 6 25 -11
-10 -40 28 -20 88 45 62 67 79 76 89 49z m324 -431 c15 -9 42 -30 60 -47 102
-94 97 -263 -11 -428 -34 -52 -44 -58 -53 -30 -22 64 -50 132 -55 132 -4 0 -9
-10 -13 -23 -15 -62 -189 -307 -217 -307 -5 0 -9 28 -9 63 l-1 62 -27 -35
c-37 -49 -159 -170 -205 -204 l-39 -28 3 61 c1 33 0 63 -3 66 -3 3 -32 -22
-64 -56 -94 -98 -250 -199 -308 -199 -56 0 -247 126 -324 214 -51 58 -56 57
-49 -12 4 -41 3 -62 -4 -62 -27 0 -153 114 -231 210 l-37 45 -1 -62 c0 -35 -4
-63 -9 -63 -24 0 -193 240 -206 293 -4 15 -11 29 -15 32 -9 6 -33 -41 -52
-102 -7 -24 -16 -43 -21 -43 -15 0 -86 123 -108 187 -40 120 -8 245 79 310 24
18 49 33 56 33 6 0 18 -15 24 -34 18 -50 95 -131 142 -150 49 -19 206 -42 388
-56 73 -5 160 -17 194 -26 65 -16 132 -47 143 -64 10 -16 33 -12 63 10 56 42
164 69 319 80 224 17 347 37 402 64 56 29 106 83 133 143 10 24 21 43 24 43 3
0 17 -8 32 -17z"/>
<path d="M2460 5699 c-25 -22 -80 -67 -124 -101 -153 -119 -181 -166 -180
-303 0 -119 31 -190 116 -271 61 -58 86 -67 49 -17 -29 38 -71 166 -71 212 0
66 27 133 71 179 48 49 82 61 118 41 43 -24 40 -72 -10 -168 -40 -79 -41 -83
-37 -159 3 -52 12 -91 26 -119 27 -52 46 -66 35 -26 -4 15 -8 57 -7 93 0 75
19 118 95 217 123 161 73 289 -100 254 -30 -6 -57 -9 -59 -6 -3 3 4 15 15 28
24 26 123 172 123 181 0 13 -17 4 -60 -35z"/>
<path d="M3810 5736 c0 -26 102 -184 130 -201 20 -13 10 -26 -12 -14 -12 6
-53 12 -91 13 -66 1 -70 0 -98 -32 -50 -56 -36 -129 45 -232 71 -91 90 -135
90 -215 1 -38 -3 -81 -8 -95 -17 -47 20 -3 44 52 15 36 22 71 22 116 0 54 -6
76 -41 144 -46 89 -51 128 -21 158 46 46 126 2 178 -97 36 -67 21 -203 -34
-302 -13 -24 -22 -46 -19 -49 12 -12 108 96 138 153 28 54 31 69 31 155 1 81
-2 102 -22 140 -30 58 -69 98 -162 170 -41 32 -93 76 -115 99 -35 36 -55 49
-55 37z"/>
<path d="M3085 5569 c-68 -69 -104 -77 -246 -53 -35 6 -36 5 -59 -48 -22 -51
-23 -59 -16 -243 7 -221 -2 -276 -55 -331 -43 -44 -20 -44 46 -1 56 36 84 74
117 155 20 49 23 75 23 182 0 69 4 135 8 147 10 28 40 47 107 66 81 24 109 51
119 115 4 28 5 52 2 52 -4 0 -25 -18 -46 -41z"/>
<path d="M3188 5605 c-10 -11 13 -100 30 -117 9 -9 54 -30 99 -48 44 -17 87
-38 95 -47 10 -12 12 -46 10 -132 -2 -103 0 -125 24 -201 23 -70 35 -92 75
-132 45 -45 95 -75 107 -64 2 3 -3 12 -12 21 -51 51 -71 142 -60 268 14 175
10 255 -16 316 l-23 53 -41 -7 c-23 -4 -56 -9 -74 -12 -60 -10 -102 6 -157 58
-28 27 -54 47 -57 44z"/>
<path d="M1750 5441 c-8 -5 -35 -12 -59 -16 -140 -23 -338 -149 -433 -275 -38
-51 -121 -217 -116 -232 2 -5 29 15 59 45 71 69 115 101 173 131 48 24 56 20
32 -17 -25 -37 -86 -177 -78 -177 4 0 31 22 60 48 55 51 65 46 32 -17 -10 -21
-28 -65 -39 -97 -52 -151 -100 -417 -73 -400 7 4 12 16 12 27 0 55 93 268 140
322 56 64 117 70 265 26 176 -52 179 -56 195 -186 12 -96 24 -129 64 -170 16
-18 25 -33 18 -33 -16 0 -62 21 -94 43 -42 28 -34 4 13 -37 55 -51 82 -59 174
-56 211 8 257 5 329 -25 l70 -29 15 24 c29 44 64 82 82 89 22 8 16 17 -35 55
-21 16 -60 63 -87 105 -144 221 -316 306 -530 260 -50 -11 -54 -10 -134 30
-238 118 -257 301 -55 510 28 29 50 54 50 56 0 8 -34 5 -50 -4z m508 -683 c65
-31 119 -90 138 -153 16 -50 16 -54 -2 -91 -36 -73 -154 -109 -275 -84 -72 15
-134 70 -145 127 -10 53 1 118 26 153 48 68 171 91 258 48z"/>
<path d="M2141 4711 c-47 -66 -15 -181 49 -181 43 0 70 40 70 105 0 96 -72
142 -119 76z"/>
<path d="M3138 5427 c-31 -33 -63 -115 -78 -198 -16 -87 -40 -130 -112 -197
-156 -144 -168 -164 -168 -284 0 -58 20 -158 32 -158 5 0 8 31 8 70 0 79 27
164 63 198 12 11 50 35 85 52 58 29 128 88 176 150 l19 24 16 -25 c30 -49 112
-119 173 -150 35 -17 73 -40 85 -52 36 -32 63 -118 64 -200 l1 -72 15 35 c22
47 28 151 13 217 -10 46 -20 62 -67 106 -158 149 -185 186 -201 282 -13 78
-48 169 -77 202 l-22 27 -25 -27z"/>
<path d="M4520 5440 c0 -5 6 -13 14 -17 27 -16 118 -129 142 -176 76 -148 14
-287 -164 -371 -80 -37 -80 -37 -146 -25 -208 36 -369 -42 -501 -242 -36 -54
-81 -110 -100 -125 -19 -14 -35 -32 -35 -38 0 -7 13 -25 29 -40 16 -16 35 -42
42 -59 11 -26 10 -31 -6 -43 -27 -20 -9 -17 22 3 31 20 75 38 148 60 37 11 73
13 140 7 194 -15 267 1 319 69 32 42 34 58 3 29 -24 -23 -87 -52 -112 -52 -10
0 -1 14 23 39 39 41 52 77 68 196 12 94 30 110 145 140 30 8 81 21 113 30 116
33 186 0 246 -118 32 -61 83 -196 94 -249 9 -42 25 -34 20 10 -21 156 -73 351
-124 465 -12 27 -20 50 -18 52 2 2 25 -16 52 -41 27 -24 53 -44 57 -44 10 0
-54 145 -81 181 -10 15 -17 29 -15 31 15 14 130 -60 204 -132 46 -44 86 -79
88 -77 6 7 -88 200 -113 231 -75 91 -94 111 -149 153 -77 59 -198 116 -302
142 -92 24 -103 25 -103 11z m-260 -680 c100 -51 123 -194 44 -273 -72 -72
-207 -87 -309 -37 -68 34 -93 82 -75 146 40 144 215 228 340 164z"/>
<path d="M4081 4711 c-31 -43 -29 -124 4 -156 54 -55 115 -13 115 80 0 96 -72
142 -119 76z"/>
<path d="M1950 5265 c-60 -31 -101 -61 -137 -101 -79 -86 -77 -88 77 -102 141
-13 192 -30 312 -108 38 -24 63 -34 75 -30 15 6 12 10 -15 23 -18 9 -43 28
-55 42 -12 14 -53 53 -90 85 -37 33 -77 72 -88 87 l-20 29 25 43 c28 47 33 77
14 77 -7 0 -51 -20 -98 -45z"/>
<path d="M4260 5293 c0 -9 11 -36 26 -60 l25 -43 -20 -29 c-11 -15 -39 -45
-63 -66 -24 -21 -71 -65 -106 -97 -34 -32 -69 -58 -77 -58 -8 0 -15 -4 -15
-10 0 -21 39 -9 101 32 115 74 153 87 297 100 159 14 162 18 70 110 -44 44
-87 75 -140 101 -87 42 -98 44 -98 20z"/>
<path d="M5046 4941 c-8 -13 6 -119 30 -226 32 -139 141 -425 205 -533 24 -42
25 -60 1 -39 -25 23 -46 22 -37 0 21 -55 56 -279 53 -350 l-3 -77 -57 89 c-32
49 -59 94 -61 99 -3 6 -7 8 -10 5 -4 -3 -2 -32 3 -65 6 -32 10 -125 10 -206 0
-153 -13 -241 -49 -333 l-19 -50 -16 37 c-9 21 -16 48 -16 60 -1 53 -16 45
-39 -20 -50 -141 -138 -292 -260 -446 -101 -128 -175 -207 -214 -228 -22 -13
-43 -30 -45 -38 -4 -13 -2 -13 14 1 10 9 39 27 64 42 67 38 347 283 403 352
27 33 56 75 64 94 16 38 23 36 32 -11 11 -53 33 -45 63 25 67 151 95 264 107
432 l6 90 49 -67 c28 -37 54 -65 58 -62 13 8 8 264 -7 339 -25 126 -31 150
-45 172 -27 43 -2 34 49 -18 28 -28 51 -48 52 -43 8 64 -45 215 -156 439 -137
278 -160 333 -199 468 -13 44 -26 75 -30 68z"/>
<path d="M1260 4925 c0 -22 -54 -178 -94 -271 -19 -45 -71 -153 -116 -240 -45
-87 -95 -193 -111 -233 -30 -78 -54 -181 -47 -201 2 -7 25 9 51 36 26 26 50
45 52 42 3 -3 -4 -31 -15 -64 -32 -92 -50 -216 -50 -343 0 -131 9 -160 34
-115 9 16 31 47 51 69 l35 40 0 -65 c0 -83 24 -221 56 -319 28 -89 85 -205 99
-204 6 0 13 17 16 37 8 51 13 51 34 4 25 -58 163 -195 348 -347 42 -35 77 -67
77 -71 0 -3 11 -13 25 -20 13 -7 22 -17 19 -21 -3 -5 2 -6 10 -3 18 7 22 24 5
24 -14 0 -52 42 -163 180 -150 184 -226 310 -291 479 -19 47 -36 79 -38 71 -3
-8 -11 -41 -18 -73 -7 -33 -16 -54 -21 -49 -5 5 -21 42 -35 83 -25 70 -27 85
-27 259 -1 102 2 214 6 250 9 74 12 77 -71 -55 -30 -47 -56 -83 -58 -81 -18
18 23 341 53 421 8 19 0 19 -31 -1 -22 -15 -25 -15 -25 -1 0 9 4 18 8 21 13 8
116 237 152 336 40 109 65 203 84 315 19 105 20 125 6 125 -5 0 -10 -7 -10
-15z"/>
<path d="M936 4808 c-20 -36 -68 -96 -104 -134 -37 -38 -87 -93 -111 -121 -23
-29 -47 -53 -51 -53 -5 0 -11 24 -13 53 -3 50 -3 50 -5 -13 -1 -51 -9 -80 -36
-135 -43 -89 -66 -143 -66 -155 0 -5 23 16 52 46 28 30 53 52 55 50 2 -2 -5
-19 -15 -37 -34 -60 -60 -160 -81 -314 -20 -151 -45 -425 -38 -431 2 -2 23 27
48 63 25 37 50 68 56 70 17 6 33 -79 33 -177 0 -147 -54 -344 -118 -427 -27
-36 -26 -37 43 -48 48 -8 201 -58 264 -87 58 -27 181 -107 181 -118 0 -11 -18
-16 -110 -30 -41 -6 -94 -16 -117 -21 -23 -5 -54 -9 -70 -9 -67 -1 -50 -17 60
-59 230 -89 485 -229 687 -379 113 -83 330 -291 330 -316 0 -9 -21 -16 -57
-20 -74 -9 -223 -48 -223 -58 0 -4 37 -8 83 -8 173 0 356 -71 475 -184 50 -47
71 -85 97 -175 24 -79 30 -67 12 22 -11 48 -26 82 -59 129 -25 35 -70 113
-100 173 -57 114 -161 276 -245 380 -68 84 -228 244 -293 292 -73 54 -210 143
-221 143 -5 0 -9 4 -9 8 0 5 28 3 62 -4 95 -20 95 -6 3 84 -159 153 -303 244
-470 297 -17 5 -13 10 25 28 53 26 99 67 74 67 -8 0 -35 -5 -60 -11 -67 -17
-117 0 -139 47 -19 41 -18 97 8 299 8 66 20 194 27 285 10 147 19 227 31 269
2 7 0 15 -6 17 -13 5 -85 -127 -85 -155 0 -12 -4 -21 -9 -21 -23 0 -28 242 -6
327 25 95 47 140 146 293 37 58 75 122 84 142 24 59 37 131 27 157 -8 21 -11
18 -46 -41z"/>
<path d="M5336 4843 c-9 -22 12 -119 35 -165 11 -21 48 -82 84 -136 122 -187
155 -276 154 -417 -1 -115 -13 -205 -23 -180 -40 96 -62 137 -82 150 -24 15
-33 8 -15 -11 6 -5 17 -99 26 -209 9 -110 23 -258 32 -330 26 -216 27 -268 8
-308 -22 -47 -58 -61 -132 -51 -32 3 -68 10 -80 15 -13 5 -23 5 -23 0 0 -4 35
-26 78 -48 l77 -39 -83 -33 c-96 -38 -184 -87 -262 -147 -71 -54 -220 -193
-220 -205 0 -11 53 -11 103 0 38 9 53 -3 17 -14 -43 -14 -207 -133 -304 -220
-190 -172 -322 -351 -458 -618 -50 -100 -75 -141 -109 -182 -18 -22 -65 -182
-56 -191 3 -3 17 31 31 76 32 101 38 112 90 168 103 111 272 180 471 191 l110
6 -70 23 c-38 13 -105 28 -147 35 -45 6 -78 16 -78 22 0 18 189 206 277 276
204 162 451 303 728 415 103 41 125 53 105 58 -28 5 -116 20 -231 37 -102 15
-112 22 -74 53 80 65 321 168 430 183 49 6 60 28 29 54 -46 38 -104 236 -111
384 -5 98 9 215 27 215 10 0 76 -91 92 -126 14 -30 33 -32 24 -1 -4 12 -11 81
-17 152 -20 277 -63 502 -110 584 -23 39 -15 56 11 24 51 -64 71 -85 76 -81 5
6 -18 62 -63 153 -32 64 -35 77 -36 160 l0 90 -6 -85 -6 -84 -50 59 c-27 33
-81 94 -120 135 -40 41 -85 99 -101 127 -31 57 -38 62 -48 36z"/>
<path d="M2437 4750 c15 -86 81 -183 177 -259 182 -145 324 -157 404 -36 24
36 32 59 31 89 l-1 41 -23 -50 c-28 -63 -79 -113 -121 -121 -46 -9 -128 18
-204 67 -89 58 -210 182 -243 249 -23 49 -26 51 -20 20z"/>
<path d="M3860 4728 c-16 -36 -51 -80 -109 -138 -123 -123 -254 -191 -335
-176 -49 9 -103 65 -118 122 -15 53 -28 57 -28 9 0 -74 67 -158 136 -171 46
-9 130 10 191 43 50 26 148 105 195 158 34 38 84 130 93 173 10 46 2 40 -25
-20z"/>
<path d="M1550 4750 c-15 -27 -24 -112 -16 -144 5 -20 14 -27 44 -31 77 -13
99 -27 185 -114 61 -61 99 -92 126 -100 47 -14 71 -14 71 -1 0 6 -4 10 -10 10
-20 0 -92 75 -115 119 -12 25 -26 66 -30 91 -15 90 -59 148 -134 175 -62 22
-108 20 -121 -5z"/>
<path d="M4635 4750 c-22 -9 -52 -31 -67 -46 -27 -30 -58 -108 -58 -147 0 -36
-55 -122 -107 -166 -44 -37 -46 -41 -23 -41 48 1 101 35 188 122 83 82 90 87
150 98 53 11 63 16 68 37 8 31 -2 116 -16 143 -14 26 -78 26 -135 0z"/>
<path d="M1619 4343 c-158 -163 -243 -320 -300 -556 -30 -122 -23 -179 7 -64
37 144 126 289 244 400 71 66 206 154 218 142 3 -3 -11 -21 -32 -41 -71 -67
-155 -214 -199 -349 -42 -127 -77 -371 -47 -325 5 8 10 27 10 41 0 37 34 130
80 224 69 138 187 262 306 323 45 23 144 62 157 62 5 0 -19 -25 -52 -56 -51
-47 -131 -156 -131 -178 0 -4 29 18 64 47 147 125 343 208 528 223 43 4 81 11
84 15 3 5 -4 9 -15 9 -11 0 -22 4 -25 9 -3 5 -43 24 -88 42 -83 34 -83 34
-218 29 -266 -8 -341 -5 -390 17 -25 11 -56 32 -69 47 -14 14 -29 26 -35 26
-6 0 -50 -39 -97 -87z"/>
<path d="M4568 4406 c-9 -13 -39 -34 -65 -47 -52 -25 -107 -28 -403 -18 -131
4 -137 3 -205 -25 -38 -16 -77 -35 -85 -42 -8 -7 -31 -14 -50 -16 -39 -4 -47
-3 145 -29 44 -6 107 -20 140 -31 127 -42 287 -136 363 -215 19 -19 35 -33 38
-31 10 11 -77 135 -129 185 -32 30 -56 57 -54 60 10 10 148 -54 216 -101 141
-96 261 -275 316 -471 l25 -90 -5 83 c-14 216 -118 471 -244 598 -29 30 -49
54 -44 54 4 0 43 -20 86 -45 139 -82 257 -212 329 -365 38 -80 58 -137 58
-165 0 -14 5 -25 10 -25 14 0 13 28 -5 102 -37 161 -95 299 -177 423 -49 72
-206 235 -228 235 -8 0 -23 -11 -32 -24z"/>
<path d="M2745 4273 c-27 -8 -54 -19 -59 -24 -6 -5 -24 -9 -40 -9 -27 -1 -29
-2 -12 -12 13 -7 38 -7 92 2 118 20 180 10 296 -50 55 -28 101 -50 103 -48 1
2 -34 31 -80 65 -59 45 -98 67 -140 78 -72 18 -95 18 -160 -2z"/>
<path d="M3435 4280 c-65 -13 -90 -26 -144 -74 -54 -48 -46 -63 12 -23 19 13
61 32 92 42 57 17 128 17 248 -1 30 -5 37 -3 37 10 0 10 -3 15 -8 13 -4 -3
-39 6 -77 19 -74 25 -96 27 -160 14z"/>
<path d="M2435 4205 l-30 -15 46 5 c159 19 341 -103 399 -267 24 -69 33 -72
25 -8 -15 111 -93 217 -198 270 -51 26 -71 30 -136 30 -45 -1 -88 -7 -106 -15z"/>
<path d="M3642 4189 c-98 -48 -177 -154 -197 -263 -10 -50 2 -45 28 12 76 162
182 240 342 252 82 6 87 7 62 18 -16 7 -61 12 -101 12 -61 0 -83 -5 -134 -31z"/>
<path d="M3426 3981 c-3 -5 -18 -12 -33 -16 -48 -12 -110 -71 -142 -137 -27
-54 -31 -71 -31 -145 0 -45 4 -83 9 -83 4 0 14 35 21 78 7 47 24 99 42 133 31
60 98 135 129 144 11 4 19 13 19 21 0 16 -6 18 -14 5z"/>
<path d="M2904 3957 c93 -69 151 -168 168 -286 7 -45 15 -81 19 -81 13 0 17
111 5 163 -23 100 -75 166 -163 211 -46 23 -63 19 -29 -7z"/>
</g>
</svg>
